<mxfile host="app.diagrams.net" agent="Mozilla/5.0 (X11; Ubuntu; Linux x86_64; rv:130.0) Gecko/20100101 Firefox/130.0" version="24.7.17">
  <diagram name="Page-1" id="kCAP5eXkj8vIBYa_J4xI">
    <mxGraphModel dx="269" dy="176" grid="1" gridSize="10" guides="1" tooltips="1" connect="1" arrows="1" fold="1" page="1" pageScale="1" pageWidth="850" pageHeight="1100" math="0" shadow="0">
      <root>
        <mxCell id="0" />
        <mxCell id="1" parent="0" />
        <mxCell id="HEWKtJRLXLEy209Adw1A-132" value="" style="endArrow=none;html=1;rounded=0;strokeColor=#FF0000;exitX=0.344;exitY=0.997;exitDx=0;exitDy=0;exitPerimeter=0;entryX=0.448;entryY=1.008;entryDx=0;entryDy=0;entryPerimeter=0;" edge="1" parent="1" source="HEWKtJRLXLEy209Adw1A-123" target="HEWKtJRLXLEy209Adw1A-126">
          <mxGeometry width="50" height="50" relative="1" as="geometry">
            <mxPoint x="470" y="721" as="sourcePoint" />
            <mxPoint x="620" y="701" as="targetPoint" />
          </mxGeometry>
        </mxCell>
        <mxCell id="HEWKtJRLXLEy209Adw1A-1" value="" style="shape=parallelogram;perimeter=parallelogramPerimeter;whiteSpace=wrap;html=1;fixedSize=1;rotation=90;" vertex="1" parent="1">
          <mxGeometry x="70" y="710" width="90" height="60" as="geometry" />
        </mxCell>
        <mxCell id="HEWKtJRLXLEy209Adw1A-3" value="" style="endArrow=none;html=1;rounded=0;exitX=0.163;exitY=0.262;exitDx=0;exitDy=0;exitPerimeter=0;" edge="1" parent="1" source="HEWKtJRLXLEy209Adw1A-1">
          <mxGeometry width="50" height="50" relative="1" as="geometry">
            <mxPoint x="60" y="750" as="sourcePoint" />
            <mxPoint x="180" y="680" as="targetPoint" />
          </mxGeometry>
        </mxCell>
        <mxCell id="HEWKtJRLXLEy209Adw1A-4" value="" style="endArrow=none;html=1;rounded=0;exitX=0.221;exitY=0.005;exitDx=0;exitDy=0;exitPerimeter=0;" edge="1" parent="1" source="HEWKtJRLXLEy209Adw1A-1">
          <mxGeometry width="50" height="50" relative="1" as="geometry">
            <mxPoint x="60" y="750" as="sourcePoint" />
            <mxPoint x="180" y="700" as="targetPoint" />
          </mxGeometry>
        </mxCell>
        <mxCell id="HEWKtJRLXLEy209Adw1A-5" value="" style="endArrow=none;html=1;rounded=0;exitX=0.374;exitY=-0.007;exitDx=0;exitDy=0;exitPerimeter=0;" edge="1" parent="1" source="HEWKtJRLXLEy209Adw1A-1">
          <mxGeometry width="50" height="50" relative="1" as="geometry">
            <mxPoint x="60" y="750" as="sourcePoint" />
            <mxPoint x="180" y="720" as="targetPoint" />
          </mxGeometry>
        </mxCell>
        <mxCell id="HEWKtJRLXLEy209Adw1A-6" value="" style="endArrow=none;html=1;rounded=0;exitX=0.533;exitY=0.005;exitDx=0;exitDy=0;exitPerimeter=0;" edge="1" parent="1" source="HEWKtJRLXLEy209Adw1A-1">
          <mxGeometry width="50" height="50" relative="1" as="geometry">
            <mxPoint x="60" y="750" as="sourcePoint" />
            <mxPoint x="180" y="740" as="targetPoint" />
          </mxGeometry>
        </mxCell>
        <mxCell id="HEWKtJRLXLEy209Adw1A-8" value="" style="endArrow=none;html=1;rounded=0;exitX=0.163;exitY=0.262;exitDx=0;exitDy=0;exitPerimeter=0;" edge="1" parent="1">
          <mxGeometry width="50" height="50" relative="1" as="geometry">
            <mxPoint x="60" y="750" as="sourcePoint" />
            <mxPoint x="111" y="720" as="targetPoint" />
          </mxGeometry>
        </mxCell>
        <mxCell id="HEWKtJRLXLEy209Adw1A-9" value="" style="endArrow=none;html=1;rounded=0;exitX=0.221;exitY=0.005;exitDx=0;exitDy=0;exitPerimeter=0;" edge="1" parent="1">
          <mxGeometry width="50" height="50" relative="1" as="geometry">
            <mxPoint x="60" y="749.5" as="sourcePoint" />
            <mxPoint x="95" y="734.5" as="targetPoint" />
          </mxGeometry>
        </mxCell>
        <mxCell id="HEWKtJRLXLEy209Adw1A-10" value="" style="endArrow=none;html=1;rounded=0;exitX=0.374;exitY=-0.007;exitDx=0;exitDy=0;exitPerimeter=0;entryX=0.389;entryY=0.083;entryDx=0;entryDy=0;entryPerimeter=0;" edge="1" parent="1" target="HEWKtJRLXLEy209Adw1A-1">
          <mxGeometry width="50" height="50" relative="1" as="geometry">
            <mxPoint x="60" y="750" as="sourcePoint" />
            <mxPoint x="95" y="741" as="targetPoint" />
          </mxGeometry>
        </mxCell>
        <mxCell id="HEWKtJRLXLEy209Adw1A-11" value="" style="endArrow=none;html=1;rounded=0;exitX=0.589;exitY=0.994;exitDx=0;exitDy=0;exitPerimeter=0;entryX=0.534;entryY=0.003;entryDx=0;entryDy=0;entryPerimeter=0;" edge="1" parent="1">
          <mxGeometry width="50" height="50" relative="1" as="geometry">
            <mxPoint x="60.36000000000007" y="750.01" as="sourcePoint" />
            <mxPoint x="119.82000000000005" y="745.0600000000001" as="targetPoint" />
          </mxGeometry>
        </mxCell>
        <mxCell id="HEWKtJRLXLEy209Adw1A-13" value="" style="ellipse;fillColor=#000000;" vertex="1" parent="1">
          <mxGeometry x="109" y="720" width="2" height="2" as="geometry" />
        </mxCell>
        <mxCell id="HEWKtJRLXLEy209Adw1A-14" value="" style="ellipse;fillColor=#000000;" vertex="1" parent="1">
          <mxGeometry x="93" y="734" width="2" height="2" as="geometry" />
        </mxCell>
        <mxCell id="HEWKtJRLXLEy209Adw1A-15" value="" style="ellipse;fillColor=#000000;" vertex="1" parent="1">
          <mxGeometry x="138" y="729" width="2" height="2" as="geometry" />
        </mxCell>
        <mxCell id="HEWKtJRLXLEy209Adw1A-16" value="" style="ellipse;fillColor=#000000;" vertex="1" parent="1">
          <mxGeometry x="118" y="744" width="2" height="2" as="geometry" />
        </mxCell>
        <mxCell id="HEWKtJRLXLEy209Adw1A-17" value="" style="ellipse;fillColor=#000000;" vertex="1" parent="1">
          <mxGeometry x="60" y="749" width="2" height="2" as="geometry" />
        </mxCell>
        <mxCell id="HEWKtJRLXLEy209Adw1A-48" value="" style="endArrow=none;html=1;rounded=0;exitX=0.163;exitY=0.262;exitDx=0;exitDy=0;exitPerimeter=0;" edge="1" parent="1">
          <mxGeometry width="50" height="50" relative="1" as="geometry">
            <mxPoint x="230" y="710" as="sourcePoint" />
            <mxPoint x="179" y="680" as="targetPoint" />
          </mxGeometry>
        </mxCell>
        <mxCell id="HEWKtJRLXLEy209Adw1A-49" value="" style="endArrow=none;html=1;rounded=0;exitX=0.221;exitY=0.005;exitDx=0;exitDy=0;exitPerimeter=0;" edge="1" parent="1">
          <mxGeometry width="50" height="50" relative="1" as="geometry">
            <mxPoint x="214" y="715" as="sourcePoint" />
            <mxPoint x="179" y="700" as="targetPoint" />
          </mxGeometry>
        </mxCell>
        <mxCell id="HEWKtJRLXLEy209Adw1A-52" value="" style="shape=parallelogram;perimeter=parallelogramPerimeter;whiteSpace=wrap;html=1;fixedSize=1;rotation=90;flipH=1;" vertex="1" parent="1">
          <mxGeometry x="199" y="710" width="90" height="60" as="geometry" />
        </mxCell>
        <mxCell id="HEWKtJRLXLEy209Adw1A-58" value="" style="endArrow=none;html=1;rounded=0;exitX=0.163;exitY=0.262;exitDx=0;exitDy=0;exitPerimeter=0;" edge="1" parent="1">
          <mxGeometry width="50" height="50" relative="1" as="geometry">
            <mxPoint x="288" y="745" as="sourcePoint" />
            <mxPoint x="237" y="715" as="targetPoint" />
          </mxGeometry>
        </mxCell>
        <mxCell id="HEWKtJRLXLEy209Adw1A-59" value="" style="endArrow=none;html=1;rounded=0;exitX=0.221;exitY=0.005;exitDx=0;exitDy=0;exitPerimeter=0;" edge="1" parent="1">
          <mxGeometry width="50" height="50" relative="1" as="geometry">
            <mxPoint x="288" y="745" as="sourcePoint" />
            <mxPoint x="253" y="730" as="targetPoint" />
          </mxGeometry>
        </mxCell>
        <mxCell id="HEWKtJRLXLEy209Adw1A-60" value="" style="endArrow=none;html=1;rounded=0;exitX=0.636;exitY=1.005;exitDx=0;exitDy=0;exitPerimeter=0;" edge="1" parent="1" source="HEWKtJRLXLEy209Adw1A-52">
          <mxGeometry width="50" height="50" relative="1" as="geometry">
            <mxPoint x="288" y="745" as="sourcePoint" />
            <mxPoint x="180" y="720" as="targetPoint" />
          </mxGeometry>
        </mxCell>
        <mxCell id="HEWKtJRLXLEy209Adw1A-62" value="" style="endArrow=none;html=1;rounded=0;exitX=0.461;exitY=0.003;exitDx=0;exitDy=0;exitPerimeter=0;entryX=0.482;entryY=1;entryDx=0;entryDy=0;entryPerimeter=0;" edge="1" parent="1">
          <mxGeometry width="50" height="50" relative="1" as="geometry">
            <mxPoint x="287.82" y="745.51" as="sourcePoint" />
            <mxPoint x="248.99999999999994" y="743.6200000000001" as="targetPoint" />
          </mxGeometry>
        </mxCell>
        <mxCell id="HEWKtJRLXLEy209Adw1A-63" value="" style="endArrow=none;html=1;rounded=0;exitX=0.483;exitY=1.006;exitDx=0;exitDy=0;exitPerimeter=0;" edge="1" parent="1" source="HEWKtJRLXLEy209Adw1A-52">
          <mxGeometry width="50" height="50" relative="1" as="geometry">
            <mxPoint x="212.64000000000004" y="741.4900000000001" as="sourcePoint" />
            <mxPoint x="180" y="740" as="targetPoint" />
          </mxGeometry>
        </mxCell>
        <mxCell id="HEWKtJRLXLEy209Adw1A-66" value="" style="endArrow=none;html=1;rounded=0;exitX=0.364;exitY=0.002;exitDx=0;exitDy=0;exitPerimeter=0;entryX=0.518;entryY=1;entryDx=0;entryDy=0;entryPerimeter=0;" edge="1" parent="1">
          <mxGeometry width="50" height="50" relative="1" as="geometry">
            <mxPoint x="287.88" y="745.24" as="sourcePoint" />
            <mxPoint x="227.99999999999994" y="731.38" as="targetPoint" />
          </mxGeometry>
        </mxCell>
        <mxCell id="HEWKtJRLXLEy209Adw1A-68" value="" style="ellipse;fillColor=#000000;" vertex="1" parent="1">
          <mxGeometry x="252" y="729" width="2" height="2" as="geometry" />
        </mxCell>
        <mxCell id="HEWKtJRLXLEy209Adw1A-69" value="" style="ellipse;fillColor=#000000;" vertex="1" parent="1">
          <mxGeometry x="249" y="743" width="2" height="2" as="geometry" />
        </mxCell>
        <mxCell id="HEWKtJRLXLEy209Adw1A-70" value="" style="ellipse;fillColor=#000000;" vertex="1" parent="1">
          <mxGeometry x="287" y="744" width="2" height="2" as="geometry" />
        </mxCell>
        <mxCell id="HEWKtJRLXLEy209Adw1A-71" value="" style="ellipse;fillColor=#000000;" vertex="1" parent="1">
          <mxGeometry x="228" y="730" width="2" height="2" as="geometry" />
        </mxCell>
        <mxCell id="HEWKtJRLXLEy209Adw1A-72" value="" style="ellipse;fillColor=#000000;" vertex="1" parent="1">
          <mxGeometry x="237" y="715" width="2" height="2" as="geometry" />
        </mxCell>
        <mxCell id="HEWKtJRLXLEy209Adw1A-73" value="" style="ellipse;fillColor=#000000;" vertex="1" parent="1">
          <mxGeometry x="179" y="719" width="2" height="2" as="geometry" />
        </mxCell>
        <mxCell id="HEWKtJRLXLEy209Adw1A-74" value="" style="ellipse;fillColor=#000000;" vertex="1" parent="1">
          <mxGeometry x="179" y="739" width="2" height="2" as="geometry" />
        </mxCell>
        <mxCell id="HEWKtJRLXLEy209Adw1A-75" value="" style="ellipse;fillColor=#000000;" vertex="1" parent="1">
          <mxGeometry x="179" y="699" width="2" height="2" as="geometry" />
        </mxCell>
        <mxCell id="HEWKtJRLXLEy209Adw1A-76" value="" style="ellipse;fillColor=#000000;" vertex="1" parent="1">
          <mxGeometry x="179" y="679" width="2" height="2" as="geometry" />
        </mxCell>
        <mxCell id="HEWKtJRLXLEy209Adw1A-77" value="P&lt;sub&gt;1&lt;/sub&gt;" style="text;html=1;align=center;verticalAlign=middle;resizable=0;points=[];autosize=1;strokeColor=none;fillColor=none;fontStyle=2;fontFamily=Times New Roman;" vertex="1" parent="1">
          <mxGeometry x="43" y="748" width="40" height="30" as="geometry" />
        </mxCell>
        <mxCell id="HEWKtJRLXLEy209Adw1A-79" value="P&lt;sub&gt;2&lt;/sub&gt;" style="text;html=1;align=center;verticalAlign=middle;resizable=0;points=[];autosize=1;strokeColor=none;fillColor=none;fontStyle=2;fontFamily=Times New Roman;" vertex="1" parent="1">
          <mxGeometry x="269" y="741" width="40" height="30" as="geometry" />
        </mxCell>
        <mxCell id="HEWKtJRLXLEy209Adw1A-86" value="&lt;div style=&quot;line-height: 140%;&quot;&gt;&lt;font style=&quot;font-size: 12px;&quot;&gt;&lt;i&gt;&lt;font style=&quot;font-size: 12px;&quot; face=&quot;Times New Roman&quot;&gt;X&lt;sub&gt;1&lt;/sub&gt;&lt;/font&gt;&lt;/i&gt;&lt;/font&gt;&lt;/div&gt;&lt;div style=&quot;line-height: 140%;&quot;&gt;&lt;font face=&quot;Times New Roman&quot; style=&quot;font-size: 12px;&quot;&gt;&lt;i&gt;&lt;font style=&quot;font-size: 12px;&quot;&gt;X&lt;sub&gt;2&lt;/sub&gt;&lt;/font&gt;&lt;/i&gt;&lt;/font&gt;&lt;/div&gt;&lt;div style=&quot;line-height: 140%;&quot;&gt;&lt;font face=&quot;Times New Roman&quot; style=&quot;font-size: 12px;&quot;&gt;&lt;i&gt;&lt;font style=&quot;font-size: 12px;&quot;&gt;X&lt;sub&gt;3&lt;/sub&gt;&lt;/font&gt;&lt;/i&gt;&lt;/font&gt;&lt;/div&gt;&lt;div style=&quot;line-height: 140%;&quot;&gt;&lt;font face=&quot;Times New Roman&quot; style=&quot;font-size: 12px;&quot;&gt;&lt;i&gt;X&lt;sub&gt;4&lt;/sub&gt;&lt;/i&gt;&lt;/font&gt;&lt;sub&gt;&lt;font face=&quot;zFF1hi2sgLc2HM2d1cql&quot; style=&quot;font-size: 12px;&quot;&gt;&lt;br&gt;&lt;/font&gt;&lt;/sub&gt;&lt;/div&gt;" style="text;html=1;align=center;verticalAlign=middle;whiteSpace=wrap;rounded=0;" vertex="1" parent="1">
          <mxGeometry x="160" y="690" width="60" height="30" as="geometry" />
        </mxCell>
        <mxCell id="HEWKtJRLXLEy209Adw1A-87" value="" style="curved=1;endArrow=classic;html=1;rounded=0;exitX=0.466;exitY=0.925;exitDx=0;exitDy=0;exitPerimeter=0;entryX=0.588;entryY=1.004;entryDx=0;entryDy=0;entryPerimeter=0;fontColor=#ff0000;strokeColor=#ff0000;dashed=1;" edge="1" parent="1" source="HEWKtJRLXLEy209Adw1A-77" target="HEWKtJRLXLEy209Adw1A-79">
          <mxGeometry width="50" height="50" relative="1" as="geometry">
            <mxPoint x="138" y="840" as="sourcePoint" />
            <mxPoint x="280" y="780" as="targetPoint" />
            <Array as="points">
              <mxPoint x="120" y="800" />
              <mxPoint x="240" y="800" />
            </Array>
          </mxGeometry>
        </mxCell>
        <mxCell id="HEWKtJRLXLEy209Adw1A-88" value="&lt;font face=&quot;Times New Roman&quot;&gt;&lt;i&gt;&lt;font color=&quot;#ff0000&quot;&gt;R&lt;sub&gt;12&lt;/sub&gt;, T&lt;sub&gt;12&lt;/sub&gt;&lt;/font&gt;&lt;sub&gt;&lt;br&gt;&lt;/sub&gt;&lt;/i&gt;&lt;/font&gt;" style="edgeLabel;html=1;align=center;verticalAlign=middle;resizable=0;points=[];" vertex="1" connectable="0" parent="HEWKtJRLXLEy209Adw1A-87">
          <mxGeometry x="-0.0468" relative="1" as="geometry">
            <mxPoint as="offset" />
          </mxGeometry>
        </mxCell>
        <mxCell id="HEWKtJRLXLEy209Adw1A-89" value="" style="shape=parallelogram;perimeter=parallelogramPerimeter;whiteSpace=wrap;html=1;fixedSize=1;rotation=90;" vertex="1" parent="1">
          <mxGeometry x="350" y="720" width="90" height="60" as="geometry" />
        </mxCell>
        <mxCell id="HEWKtJRLXLEy209Adw1A-90" value="" style="endArrow=none;html=1;rounded=0;exitX=0.163;exitY=0.262;exitDx=0;exitDy=0;exitPerimeter=0;" edge="1" parent="1" source="HEWKtJRLXLEy209Adw1A-89">
          <mxGeometry width="50" height="50" relative="1" as="geometry">
            <mxPoint x="340" y="760" as="sourcePoint" />
            <mxPoint x="460" y="690" as="targetPoint" />
          </mxGeometry>
        </mxCell>
        <mxCell id="HEWKtJRLXLEy209Adw1A-91" value="" style="endArrow=none;html=1;rounded=0;exitX=0.221;exitY=0.005;exitDx=0;exitDy=0;exitPerimeter=0;" edge="1" parent="1" source="HEWKtJRLXLEy209Adw1A-89">
          <mxGeometry width="50" height="50" relative="1" as="geometry">
            <mxPoint x="340" y="760" as="sourcePoint" />
            <mxPoint x="460" y="710" as="targetPoint" />
          </mxGeometry>
        </mxCell>
        <mxCell id="HEWKtJRLXLEy209Adw1A-92" value="" style="endArrow=none;html=1;rounded=0;exitX=0.374;exitY=-0.007;exitDx=0;exitDy=0;exitPerimeter=0;" edge="1" parent="1" source="HEWKtJRLXLEy209Adw1A-89">
          <mxGeometry width="50" height="50" relative="1" as="geometry">
            <mxPoint x="340" y="760" as="sourcePoint" />
            <mxPoint x="460" y="730" as="targetPoint" />
          </mxGeometry>
        </mxCell>
        <mxCell id="HEWKtJRLXLEy209Adw1A-93" value="" style="endArrow=none;html=1;rounded=0;exitX=0.533;exitY=0.005;exitDx=0;exitDy=0;exitPerimeter=0;" edge="1" parent="1" source="HEWKtJRLXLEy209Adw1A-89">
          <mxGeometry width="50" height="50" relative="1" as="geometry">
            <mxPoint x="340" y="760" as="sourcePoint" />
            <mxPoint x="460" y="750" as="targetPoint" />
          </mxGeometry>
        </mxCell>
        <mxCell id="HEWKtJRLXLEy209Adw1A-94" value="" style="endArrow=none;html=1;rounded=0;exitX=0.163;exitY=0.262;exitDx=0;exitDy=0;exitPerimeter=0;" edge="1" parent="1">
          <mxGeometry width="50" height="50" relative="1" as="geometry">
            <mxPoint x="340" y="760" as="sourcePoint" />
            <mxPoint x="391" y="730" as="targetPoint" />
          </mxGeometry>
        </mxCell>
        <mxCell id="HEWKtJRLXLEy209Adw1A-95" value="" style="endArrow=none;html=1;rounded=0;exitX=0.221;exitY=0.005;exitDx=0;exitDy=0;exitPerimeter=0;" edge="1" parent="1">
          <mxGeometry width="50" height="50" relative="1" as="geometry">
            <mxPoint x="340" y="759.5" as="sourcePoint" />
            <mxPoint x="375" y="744.5" as="targetPoint" />
          </mxGeometry>
        </mxCell>
        <mxCell id="HEWKtJRLXLEy209Adw1A-96" value="" style="endArrow=none;html=1;rounded=0;exitX=0.374;exitY=-0.007;exitDx=0;exitDy=0;exitPerimeter=0;entryX=0.389;entryY=0.083;entryDx=0;entryDy=0;entryPerimeter=0;" edge="1" parent="1" target="HEWKtJRLXLEy209Adw1A-89">
          <mxGeometry width="50" height="50" relative="1" as="geometry">
            <mxPoint x="340" y="760" as="sourcePoint" />
            <mxPoint x="375" y="751" as="targetPoint" />
          </mxGeometry>
        </mxCell>
        <mxCell id="HEWKtJRLXLEy209Adw1A-97" value="" style="endArrow=none;html=1;rounded=0;exitX=0.589;exitY=0.994;exitDx=0;exitDy=0;exitPerimeter=0;entryX=0.534;entryY=0.003;entryDx=0;entryDy=0;entryPerimeter=0;" edge="1" parent="1">
          <mxGeometry width="50" height="50" relative="1" as="geometry">
            <mxPoint x="340.36000000000007" y="760.01" as="sourcePoint" />
            <mxPoint x="399.82000000000005" y="755.0600000000001" as="targetPoint" />
          </mxGeometry>
        </mxCell>
        <mxCell id="HEWKtJRLXLEy209Adw1A-98" value="" style="ellipse;fillColor=#000000;" vertex="1" parent="1">
          <mxGeometry x="389" y="730" width="2" height="2" as="geometry" />
        </mxCell>
        <mxCell id="HEWKtJRLXLEy209Adw1A-99" value="" style="ellipse;fillColor=#000000;" vertex="1" parent="1">
          <mxGeometry x="373" y="744" width="2" height="2" as="geometry" />
        </mxCell>
        <mxCell id="HEWKtJRLXLEy209Adw1A-100" value="" style="ellipse;fillColor=#000000;" vertex="1" parent="1">
          <mxGeometry x="418" y="739" width="2" height="2" as="geometry" />
        </mxCell>
        <mxCell id="HEWKtJRLXLEy209Adw1A-101" value="" style="ellipse;fillColor=#000000;" vertex="1" parent="1">
          <mxGeometry x="398" y="754" width="2" height="2" as="geometry" />
        </mxCell>
        <mxCell id="HEWKtJRLXLEy209Adw1A-102" value="" style="ellipse;fillColor=#000000;" vertex="1" parent="1">
          <mxGeometry x="340" y="759" width="2" height="2" as="geometry" />
        </mxCell>
        <mxCell id="HEWKtJRLXLEy209Adw1A-103" value="" style="endArrow=none;html=1;rounded=0;exitX=0.163;exitY=0.262;exitDx=0;exitDy=0;exitPerimeter=0;" edge="1" parent="1">
          <mxGeometry width="50" height="50" relative="1" as="geometry">
            <mxPoint x="510" y="720" as="sourcePoint" />
            <mxPoint x="459" y="690" as="targetPoint" />
          </mxGeometry>
        </mxCell>
        <mxCell id="HEWKtJRLXLEy209Adw1A-104" value="" style="endArrow=none;html=1;rounded=0;exitX=0.221;exitY=0.005;exitDx=0;exitDy=0;exitPerimeter=0;" edge="1" parent="1">
          <mxGeometry width="50" height="50" relative="1" as="geometry">
            <mxPoint x="494" y="725" as="sourcePoint" />
            <mxPoint x="459" y="710" as="targetPoint" />
          </mxGeometry>
        </mxCell>
        <mxCell id="HEWKtJRLXLEy209Adw1A-105" value="" style="shape=parallelogram;perimeter=parallelogramPerimeter;whiteSpace=wrap;html=1;fixedSize=1;rotation=90;flipH=1;" vertex="1" parent="1">
          <mxGeometry x="479" y="720" width="90" height="60" as="geometry" />
        </mxCell>
        <mxCell id="HEWKtJRLXLEy209Adw1A-106" value="" style="endArrow=none;html=1;rounded=0;exitX=0.163;exitY=0.262;exitDx=0;exitDy=0;exitPerimeter=0;" edge="1" parent="1">
          <mxGeometry width="50" height="50" relative="1" as="geometry">
            <mxPoint x="568" y="755" as="sourcePoint" />
            <mxPoint x="517" y="725" as="targetPoint" />
          </mxGeometry>
        </mxCell>
        <mxCell id="HEWKtJRLXLEy209Adw1A-107" value="" style="endArrow=none;html=1;rounded=0;exitX=0.248;exitY=0.047;exitDx=0;exitDy=0;exitPerimeter=0;" edge="1" parent="1">
          <mxGeometry width="50" height="50" relative="1" as="geometry">
            <mxPoint x="567.92" y="755.4099999999999" as="sourcePoint" />
            <mxPoint x="515" y="733" as="targetPoint" />
          </mxGeometry>
        </mxCell>
        <mxCell id="HEWKtJRLXLEy209Adw1A-108" value="" style="endArrow=none;html=1;rounded=0;exitX=0.636;exitY=1.005;exitDx=0;exitDy=0;exitPerimeter=0;" edge="1" parent="1" source="HEWKtJRLXLEy209Adw1A-105">
          <mxGeometry width="50" height="50" relative="1" as="geometry">
            <mxPoint x="568" y="755" as="sourcePoint" />
            <mxPoint x="460" y="730" as="targetPoint" />
          </mxGeometry>
        </mxCell>
        <mxCell id="HEWKtJRLXLEy209Adw1A-109" value="" style="endArrow=none;html=1;rounded=0;exitX=0.461;exitY=0.003;exitDx=0;exitDy=0;exitPerimeter=0;entryX=0.482;entryY=1;entryDx=0;entryDy=0;entryPerimeter=0;" edge="1" parent="1">
          <mxGeometry width="50" height="50" relative="1" as="geometry">
            <mxPoint x="567.8199999999999" y="755.51" as="sourcePoint" />
            <mxPoint x="529" y="753.6200000000001" as="targetPoint" />
          </mxGeometry>
        </mxCell>
        <mxCell id="HEWKtJRLXLEy209Adw1A-110" value="" style="endArrow=none;html=1;rounded=0;exitX=0.483;exitY=1.006;exitDx=0;exitDy=0;exitPerimeter=0;" edge="1" parent="1" source="HEWKtJRLXLEy209Adw1A-105">
          <mxGeometry width="50" height="50" relative="1" as="geometry">
            <mxPoint x="492.64000000000004" y="751.4900000000001" as="sourcePoint" />
            <mxPoint x="460" y="750" as="targetPoint" />
          </mxGeometry>
        </mxCell>
        <mxCell id="HEWKtJRLXLEy209Adw1A-111" value="" style="endArrow=none;html=1;rounded=0;exitX=0.364;exitY=0.002;exitDx=0;exitDy=0;exitPerimeter=0;entryX=0.518;entryY=1;entryDx=0;entryDy=0;entryPerimeter=0;" edge="1" parent="1">
          <mxGeometry width="50" height="50" relative="1" as="geometry">
            <mxPoint x="567.88" y="755.24" as="sourcePoint" />
            <mxPoint x="507.99999999999994" y="741.38" as="targetPoint" />
          </mxGeometry>
        </mxCell>
        <mxCell id="HEWKtJRLXLEy209Adw1A-113" value="" style="ellipse;fillColor=#000000;" vertex="1" parent="1">
          <mxGeometry x="529" y="753" width="2" height="2" as="geometry" />
        </mxCell>
        <mxCell id="HEWKtJRLXLEy209Adw1A-114" value="" style="ellipse;fillColor=#000000;" vertex="1" parent="1">
          <mxGeometry x="567" y="754" width="2" height="2" as="geometry" />
        </mxCell>
        <mxCell id="HEWKtJRLXLEy209Adw1A-117" value="" style="ellipse;fillColor=#000000;" vertex="1" parent="1">
          <mxGeometry x="459" y="729" width="2" height="2" as="geometry" />
        </mxCell>
        <mxCell id="HEWKtJRLXLEy209Adw1A-118" value="" style="ellipse;fillColor=#000000;" vertex="1" parent="1">
          <mxGeometry x="459" y="749" width="2" height="2" as="geometry" />
        </mxCell>
        <mxCell id="HEWKtJRLXLEy209Adw1A-119" value="" style="ellipse;fillColor=#000000;" vertex="1" parent="1">
          <mxGeometry x="459" y="709" width="2" height="2" as="geometry" />
        </mxCell>
        <mxCell id="HEWKtJRLXLEy209Adw1A-120" value="" style="ellipse;fillColor=#000000;" vertex="1" parent="1">
          <mxGeometry x="459" y="689" width="2" height="2" as="geometry" />
        </mxCell>
        <mxCell id="HEWKtJRLXLEy209Adw1A-121" value="P&lt;sub&gt;1&lt;/sub&gt;" style="text;html=1;align=center;verticalAlign=middle;resizable=0;points=[];autosize=1;strokeColor=none;fillColor=none;fontStyle=2;fontFamily=Times New Roman;" vertex="1" parent="1">
          <mxGeometry x="323" y="758" width="40" height="30" as="geometry" />
        </mxCell>
        <mxCell id="HEWKtJRLXLEy209Adw1A-122" value="P&lt;sub&gt;2&lt;/sub&gt;" style="text;html=1;align=center;verticalAlign=middle;resizable=0;points=[];autosize=1;strokeColor=none;fillColor=none;fontStyle=2;fontFamily=Times New Roman;" vertex="1" parent="1">
          <mxGeometry x="549" y="751" width="40" height="30" as="geometry" />
        </mxCell>
        <mxCell id="HEWKtJRLXLEy209Adw1A-123" value="&lt;div style=&quot;line-height: 140%;&quot;&gt;&lt;font style=&quot;font-size: 12px;&quot;&gt;&lt;i&gt;&lt;font style=&quot;font-size: 12px;&quot; face=&quot;Times New Roman&quot;&gt;X&lt;sub&gt;1&lt;/sub&gt;&lt;/font&gt;&lt;/i&gt;&lt;/font&gt;&lt;/div&gt;&lt;div style=&quot;line-height: 140%;&quot;&gt;&lt;font face=&quot;Times New Roman&quot; style=&quot;font-size: 12px;&quot;&gt;&lt;i&gt;&lt;font style=&quot;font-size: 12px;&quot;&gt;X&lt;sub&gt;2&lt;/sub&gt;&lt;/font&gt;&lt;/i&gt;&lt;/font&gt;&lt;/div&gt;&lt;div style=&quot;line-height: 140%;&quot;&gt;&lt;font face=&quot;Times New Roman&quot; style=&quot;font-size: 12px;&quot;&gt;&lt;i&gt;&lt;font style=&quot;font-size: 12px;&quot;&gt;X&lt;sub&gt;3&lt;/sub&gt;&lt;/font&gt;&lt;/i&gt;&lt;/font&gt;&lt;/div&gt;&lt;div style=&quot;line-height: 140%;&quot;&gt;&lt;font face=&quot;Times New Roman&quot; style=&quot;font-size: 12px;&quot;&gt;&lt;i&gt;X&lt;sub&gt;4&lt;/sub&gt;&lt;/i&gt;&lt;/font&gt;&lt;sub&gt;&lt;font face=&quot;zFF1hi2sgLc2HM2d1cql&quot; style=&quot;font-size: 12px;&quot;&gt;&lt;br&gt;&lt;/font&gt;&lt;/sub&gt;&lt;/div&gt;" style="text;html=1;align=center;verticalAlign=middle;whiteSpace=wrap;rounded=0;" vertex="1" parent="1">
          <mxGeometry x="440" y="700" width="60" height="30" as="geometry" />
        </mxCell>
        <mxCell id="HEWKtJRLXLEy209Adw1A-126" value="" style="shape=parallelogram;perimeter=parallelogramPerimeter;whiteSpace=wrap;html=1;fixedSize=1;rotation=90;flipH=1;strokeColor=#FF0000;" vertex="1" parent="1">
          <mxGeometry x="537" y="691" width="90" height="30" as="geometry" />
        </mxCell>
        <mxCell id="HEWKtJRLXLEy209Adw1A-127" value="" style="endArrow=none;html=1;rounded=0;strokeColor=#FF0000;exitX=1;exitY=0.5;exitDx=0;exitDy=0;entryX=0.599;entryY=1.004;entryDx=0;entryDy=0;entryPerimeter=0;" edge="1" parent="1" source="HEWKtJRLXLEy209Adw1A-120" target="HEWKtJRLXLEy209Adw1A-126">
          <mxGeometry width="50" height="50" relative="1" as="geometry">
            <mxPoint x="481" y="691" as="sourcePoint" />
            <mxPoint x="550" y="690" as="targetPoint" />
          </mxGeometry>
        </mxCell>
        <mxCell id="HEWKtJRLXLEy209Adw1A-128" value="" style="endArrow=none;html=1;rounded=0;strokeColor=#FF0000;exitX=0.539;exitY=1.012;exitDx=0;exitDy=0;entryX=0.517;entryY=0.007;entryDx=0;entryDy=0;entryPerimeter=0;exitPerimeter=0;" edge="1" parent="1">
          <mxGeometry width="50" height="50" relative="1" as="geometry">
            <mxPoint x="589.64" y="698.49" as="sourcePoint" />
            <mxPoint x="619.79" y="700.4700000000001" as="targetPoint" />
          </mxGeometry>
        </mxCell>
        <mxCell id="HEWKtJRLXLEy209Adw1A-129" value="" style="endArrow=none;html=1;rounded=0;strokeColor=#FF0000;entryX=0.522;entryY=1.01;entryDx=0;entryDy=0;entryPerimeter=0;" edge="1" parent="1" target="HEWKtJRLXLEy209Adw1A-126">
          <mxGeometry width="50" height="50" relative="1" as="geometry">
            <mxPoint x="460" y="710" as="sourcePoint" />
            <mxPoint x="620" y="701" as="targetPoint" />
          </mxGeometry>
        </mxCell>
        <mxCell id="HEWKtJRLXLEy209Adw1A-131" value="" style="endArrow=none;html=1;rounded=0;strokeColor=#FF0000;entryX=0.425;entryY=0;entryDx=0;entryDy=0;entryPerimeter=0;exitX=0.4;exitY=0.995;exitDx=0;exitDy=0;exitPerimeter=0;" edge="1" parent="1">
          <mxGeometry width="50" height="50" relative="1" as="geometry">
            <mxPoint x="582.15" y="703.0000000000001" as="sourcePoint" />
            <mxPoint x="619.9999999999999" y="700.75" as="targetPoint" />
          </mxGeometry>
        </mxCell>
        <mxCell id="HEWKtJRLXLEy209Adw1A-133" value="" style="endArrow=none;html=1;rounded=0;strokeColor=#FF0000;entryX=0.419;entryY=-0.004;entryDx=0;entryDy=0;entryPerimeter=0;" edge="1" parent="1">
          <mxGeometry width="50" height="50" relative="1" as="geometry">
            <mxPoint x="583" y="708" as="sourcePoint" />
            <mxPoint x="620.1199999999999" y="701.2900000000001" as="targetPoint" />
          </mxGeometry>
        </mxCell>
        <mxCell id="HEWKtJRLXLEy209Adw1A-135" value="" style="ellipse;fillColor=#FF0000;strokeColor=#FF0000;" vertex="1" parent="1">
          <mxGeometry x="619" y="700" width="2" height="2" as="geometry" />
        </mxCell>
        <mxCell id="HEWKtJRLXLEy209Adw1A-136" value="" style="ellipse;fillColor=#FF0000;strokeColor=#FF0000;" vertex="1" parent="1">
          <mxGeometry x="582" y="707" width="2" height="2" as="geometry" />
        </mxCell>
        <mxCell id="HEWKtJRLXLEy209Adw1A-137" value="" style="ellipse;fillColor=#FF0000;strokeColor=#FF0000;" vertex="1" parent="1">
          <mxGeometry x="581" y="702" width="2" height="2" as="geometry" />
        </mxCell>
        <mxCell id="HEWKtJRLXLEy209Adw1A-138" value="" style="ellipse;fillColor=#FF0000;strokeColor=#FF0000;" vertex="1" parent="1">
          <mxGeometry x="589" y="697" width="2" height="2" as="geometry" />
        </mxCell>
        <mxCell id="HEWKtJRLXLEy209Adw1A-139" value="" style="endArrow=none;html=1;rounded=0;entryX=0;entryY=1;entryDx=0;entryDy=0;strokeColor=#FF0000;" edge="1" parent="1">
          <mxGeometry width="50" height="50" relative="1" as="geometry">
            <mxPoint x="517.71" y="726.29" as="sourcePoint" />
            <mxPoint x="590.0028932188239" y="697.9971067811758" as="targetPoint" />
          </mxGeometry>
        </mxCell>
        <mxCell id="HEWKtJRLXLEy209Adw1A-140" value="" style="endArrow=none;html=1;rounded=0;strokeColor=#FF0000;" edge="1" parent="1" target="HEWKtJRLXLEy209Adw1A-137">
          <mxGeometry width="50" height="50" relative="1" as="geometry">
            <mxPoint x="515" y="733" as="sourcePoint" />
            <mxPoint x="576.0830560225083" y="706.3990159671507" as="targetPoint" />
          </mxGeometry>
        </mxCell>
        <mxCell id="HEWKtJRLXLEy209Adw1A-142" value="" style="endArrow=none;html=1;rounded=0;strokeColor=#FF0000;" edge="1" parent="1" target="HEWKtJRLXLEy209Adw1A-136">
          <mxGeometry width="50" height="50" relative="1" as="geometry">
            <mxPoint x="510" y="741" as="sourcePoint" />
            <mxPoint x="560" y="691" as="targetPoint" />
          </mxGeometry>
        </mxCell>
        <mxCell id="HEWKtJRLXLEy209Adw1A-112" value="" style="ellipse;fillColor=#000000;" vertex="1" parent="1">
          <mxGeometry x="514" y="732" width="2" height="2" as="geometry" />
        </mxCell>
        <mxCell id="HEWKtJRLXLEy209Adw1A-116" value="" style="ellipse;fillColor=#000000;" vertex="1" parent="1">
          <mxGeometry x="517" y="725" width="2" height="2" as="geometry" />
        </mxCell>
        <mxCell id="HEWKtJRLXLEy209Adw1A-115" value="" style="ellipse;fillColor=#000000;" vertex="1" parent="1">
          <mxGeometry x="508" y="740" width="2" height="2" as="geometry" />
        </mxCell>
        <mxCell id="HEWKtJRLXLEy209Adw1A-143" value="&lt;font color=&quot;#ff0000&quot;&gt;P&lt;sub&gt;3&lt;/sub&gt;&lt;/font&gt;" style="text;html=1;align=center;verticalAlign=middle;resizable=0;points=[];autosize=1;strokeColor=none;fillColor=none;fontStyle=2;fontFamily=Times New Roman;" vertex="1" parent="1">
          <mxGeometry x="600" y="695" width="40" height="30" as="geometry" />
        </mxCell>
        <mxCell id="HEWKtJRLXLEy209Adw1A-144" value="" style="endArrow=none;html=1;rounded=0;strokeColor=#000000;exitX=0.344;exitY=0.997;exitDx=0;exitDy=0;exitPerimeter=0;entryX=0.448;entryY=1.008;entryDx=0;entryDy=0;entryPerimeter=0;" edge="1" parent="1" source="HEWKtJRLXLEy209Adw1A-175" target="HEWKtJRLXLEy209Adw1A-176">
          <mxGeometry width="50" height="50" relative="1" as="geometry">
            <mxPoint x="790" y="721" as="sourcePoint" />
            <mxPoint x="940" y="701" as="targetPoint" />
          </mxGeometry>
        </mxCell>
        <mxCell id="HEWKtJRLXLEy209Adw1A-145" value="" style="shape=parallelogram;perimeter=parallelogramPerimeter;whiteSpace=wrap;html=1;fixedSize=1;rotation=90;strokeColor=#000000;" vertex="1" parent="1">
          <mxGeometry x="670" y="720" width="90" height="60" as="geometry" />
        </mxCell>
        <mxCell id="HEWKtJRLXLEy209Adw1A-146" value="" style="endArrow=none;html=1;rounded=0;exitX=0.163;exitY=0.262;exitDx=0;exitDy=0;exitPerimeter=0;strokeColor=#000000;" edge="1" parent="1" source="HEWKtJRLXLEy209Adw1A-145">
          <mxGeometry width="50" height="50" relative="1" as="geometry">
            <mxPoint x="660" y="760" as="sourcePoint" />
            <mxPoint x="780" y="690" as="targetPoint" />
          </mxGeometry>
        </mxCell>
        <mxCell id="HEWKtJRLXLEy209Adw1A-147" value="" style="endArrow=none;html=1;rounded=0;exitX=0.221;exitY=0.005;exitDx=0;exitDy=0;exitPerimeter=0;strokeColor=#000000;" edge="1" parent="1" source="HEWKtJRLXLEy209Adw1A-145">
          <mxGeometry width="50" height="50" relative="1" as="geometry">
            <mxPoint x="660" y="760" as="sourcePoint" />
            <mxPoint x="780" y="710" as="targetPoint" />
          </mxGeometry>
        </mxCell>
        <mxCell id="HEWKtJRLXLEy209Adw1A-148" value="" style="endArrow=none;html=1;rounded=0;exitX=0.374;exitY=-0.007;exitDx=0;exitDy=0;exitPerimeter=0;strokeColor=#000000;" edge="1" parent="1" source="HEWKtJRLXLEy209Adw1A-145">
          <mxGeometry width="50" height="50" relative="1" as="geometry">
            <mxPoint x="660" y="760" as="sourcePoint" />
            <mxPoint x="780" y="730" as="targetPoint" />
          </mxGeometry>
        </mxCell>
        <mxCell id="HEWKtJRLXLEy209Adw1A-149" value="" style="endArrow=none;html=1;rounded=0;exitX=0.533;exitY=0.005;exitDx=0;exitDy=0;exitPerimeter=0;strokeColor=#000000;" edge="1" parent="1" source="HEWKtJRLXLEy209Adw1A-145">
          <mxGeometry width="50" height="50" relative="1" as="geometry">
            <mxPoint x="660" y="760" as="sourcePoint" />
            <mxPoint x="780" y="750" as="targetPoint" />
          </mxGeometry>
        </mxCell>
        <mxCell id="HEWKtJRLXLEy209Adw1A-150" value="" style="endArrow=none;html=1;rounded=0;exitX=0.163;exitY=0.262;exitDx=0;exitDy=0;exitPerimeter=0;strokeColor=#000000;" edge="1" parent="1">
          <mxGeometry width="50" height="50" relative="1" as="geometry">
            <mxPoint x="660" y="760" as="sourcePoint" />
            <mxPoint x="711" y="730" as="targetPoint" />
          </mxGeometry>
        </mxCell>
        <mxCell id="HEWKtJRLXLEy209Adw1A-151" value="" style="endArrow=none;html=1;rounded=0;exitX=0.221;exitY=0.005;exitDx=0;exitDy=0;exitPerimeter=0;strokeColor=#000000;" edge="1" parent="1">
          <mxGeometry width="50" height="50" relative="1" as="geometry">
            <mxPoint x="660" y="759.5" as="sourcePoint" />
            <mxPoint x="695" y="744.5" as="targetPoint" />
          </mxGeometry>
        </mxCell>
        <mxCell id="HEWKtJRLXLEy209Adw1A-152" value="" style="endArrow=none;html=1;rounded=0;exitX=0.374;exitY=-0.007;exitDx=0;exitDy=0;exitPerimeter=0;entryX=0.389;entryY=0.083;entryDx=0;entryDy=0;entryPerimeter=0;strokeColor=#000000;" edge="1" parent="1" target="HEWKtJRLXLEy209Adw1A-145">
          <mxGeometry width="50" height="50" relative="1" as="geometry">
            <mxPoint x="660" y="760" as="sourcePoint" />
            <mxPoint x="695" y="751" as="targetPoint" />
          </mxGeometry>
        </mxCell>
        <mxCell id="HEWKtJRLXLEy209Adw1A-153" value="" style="endArrow=none;html=1;rounded=0;exitX=0.589;exitY=0.994;exitDx=0;exitDy=0;exitPerimeter=0;entryX=0.534;entryY=0.003;entryDx=0;entryDy=0;entryPerimeter=0;strokeColor=#000000;" edge="1" parent="1">
          <mxGeometry width="50" height="50" relative="1" as="geometry">
            <mxPoint x="660.3600000000001" y="760.01" as="sourcePoint" />
            <mxPoint x="719.82" y="755.0600000000001" as="targetPoint" />
          </mxGeometry>
        </mxCell>
        <mxCell id="HEWKtJRLXLEy209Adw1A-154" value="" style="ellipse;fillColor=#000000;strokeColor=#000000;" vertex="1" parent="1">
          <mxGeometry x="709" y="730" width="2" height="2" as="geometry" />
        </mxCell>
        <mxCell id="HEWKtJRLXLEy209Adw1A-155" value="" style="ellipse;fillColor=#000000;strokeColor=#000000;" vertex="1" parent="1">
          <mxGeometry x="693" y="744" width="2" height="2" as="geometry" />
        </mxCell>
        <mxCell id="HEWKtJRLXLEy209Adw1A-156" value="" style="ellipse;fillColor=#000000;strokeColor=#000000;" vertex="1" parent="1">
          <mxGeometry x="738" y="739" width="2" height="2" as="geometry" />
        </mxCell>
        <mxCell id="HEWKtJRLXLEy209Adw1A-157" value="" style="ellipse;fillColor=#000000;strokeColor=#000000;" vertex="1" parent="1">
          <mxGeometry x="718" y="754" width="2" height="2" as="geometry" />
        </mxCell>
        <mxCell id="HEWKtJRLXLEy209Adw1A-158" value="" style="ellipse;fillColor=#000000;strokeColor=#000000;" vertex="1" parent="1">
          <mxGeometry x="660" y="759" width="2" height="2" as="geometry" />
        </mxCell>
        <mxCell id="HEWKtJRLXLEy209Adw1A-159" value="" style="endArrow=none;html=1;rounded=0;exitX=0.163;exitY=0.262;exitDx=0;exitDy=0;exitPerimeter=0;strokeColor=#000000;" edge="1" parent="1">
          <mxGeometry width="50" height="50" relative="1" as="geometry">
            <mxPoint x="830" y="720" as="sourcePoint" />
            <mxPoint x="779" y="690" as="targetPoint" />
          </mxGeometry>
        </mxCell>
        <mxCell id="HEWKtJRLXLEy209Adw1A-160" value="" style="endArrow=none;html=1;rounded=0;exitX=0.221;exitY=0.005;exitDx=0;exitDy=0;exitPerimeter=0;strokeColor=#000000;" edge="1" parent="1">
          <mxGeometry width="50" height="50" relative="1" as="geometry">
            <mxPoint x="814" y="725" as="sourcePoint" />
            <mxPoint x="779" y="710" as="targetPoint" />
          </mxGeometry>
        </mxCell>
        <mxCell id="HEWKtJRLXLEy209Adw1A-161" value="" style="shape=parallelogram;perimeter=parallelogramPerimeter;whiteSpace=wrap;html=1;fixedSize=1;rotation=90;flipH=1;strokeColor=#000000;" vertex="1" parent="1">
          <mxGeometry x="799" y="720" width="90" height="60" as="geometry" />
        </mxCell>
        <mxCell id="HEWKtJRLXLEy209Adw1A-162" value="" style="endArrow=none;html=1;rounded=0;exitX=0.163;exitY=0.262;exitDx=0;exitDy=0;exitPerimeter=0;strokeColor=#000000;" edge="1" parent="1">
          <mxGeometry width="50" height="50" relative="1" as="geometry">
            <mxPoint x="888" y="755" as="sourcePoint" />
            <mxPoint x="837" y="725" as="targetPoint" />
          </mxGeometry>
        </mxCell>
        <mxCell id="HEWKtJRLXLEy209Adw1A-163" value="" style="endArrow=none;html=1;rounded=0;exitX=0.248;exitY=0.047;exitDx=0;exitDy=0;exitPerimeter=0;strokeColor=#000000;" edge="1" parent="1">
          <mxGeometry width="50" height="50" relative="1" as="geometry">
            <mxPoint x="887.92" y="755.4099999999999" as="sourcePoint" />
            <mxPoint x="835" y="733" as="targetPoint" />
          </mxGeometry>
        </mxCell>
        <mxCell id="HEWKtJRLXLEy209Adw1A-164" value="" style="endArrow=none;html=1;rounded=0;exitX=0.636;exitY=1.005;exitDx=0;exitDy=0;exitPerimeter=0;strokeColor=#000000;" edge="1" parent="1" source="HEWKtJRLXLEy209Adw1A-161">
          <mxGeometry width="50" height="50" relative="1" as="geometry">
            <mxPoint x="888" y="755" as="sourcePoint" />
            <mxPoint x="780" y="730" as="targetPoint" />
          </mxGeometry>
        </mxCell>
        <mxCell id="HEWKtJRLXLEy209Adw1A-165" value="" style="endArrow=none;html=1;rounded=0;exitX=0.461;exitY=0.003;exitDx=0;exitDy=0;exitPerimeter=0;entryX=0.482;entryY=1;entryDx=0;entryDy=0;entryPerimeter=0;strokeColor=#000000;" edge="1" parent="1">
          <mxGeometry width="50" height="50" relative="1" as="geometry">
            <mxPoint x="887.8199999999999" y="755.51" as="sourcePoint" />
            <mxPoint x="849" y="753.6200000000001" as="targetPoint" />
          </mxGeometry>
        </mxCell>
        <mxCell id="HEWKtJRLXLEy209Adw1A-166" value="" style="endArrow=none;html=1;rounded=0;exitX=0.483;exitY=1.006;exitDx=0;exitDy=0;exitPerimeter=0;strokeColor=#000000;" edge="1" parent="1" source="HEWKtJRLXLEy209Adw1A-161">
          <mxGeometry width="50" height="50" relative="1" as="geometry">
            <mxPoint x="812.6400000000001" y="751.4900000000001" as="sourcePoint" />
            <mxPoint x="780" y="750" as="targetPoint" />
          </mxGeometry>
        </mxCell>
        <mxCell id="HEWKtJRLXLEy209Adw1A-167" value="" style="endArrow=none;html=1;rounded=0;exitX=0.364;exitY=0.002;exitDx=0;exitDy=0;exitPerimeter=0;entryX=0.518;entryY=1;entryDx=0;entryDy=0;entryPerimeter=0;strokeColor=#000000;" edge="1" parent="1">
          <mxGeometry width="50" height="50" relative="1" as="geometry">
            <mxPoint x="887.88" y="755.24" as="sourcePoint" />
            <mxPoint x="828" y="741.38" as="targetPoint" />
          </mxGeometry>
        </mxCell>
        <mxCell id="HEWKtJRLXLEy209Adw1A-168" value="" style="ellipse;fillColor=#000000;strokeColor=#000000;" vertex="1" parent="1">
          <mxGeometry x="849" y="753" width="2" height="2" as="geometry" />
        </mxCell>
        <mxCell id="HEWKtJRLXLEy209Adw1A-170" value="" style="ellipse;fillColor=#000000;strokeColor=#000000;" vertex="1" parent="1">
          <mxGeometry x="779" y="729" width="2" height="2" as="geometry" />
        </mxCell>
        <mxCell id="HEWKtJRLXLEy209Adw1A-171" value="" style="ellipse;fillColor=#000000;strokeColor=#000000;" vertex="1" parent="1">
          <mxGeometry x="779" y="749" width="2" height="2" as="geometry" />
        </mxCell>
        <mxCell id="HEWKtJRLXLEy209Adw1A-172" value="" style="ellipse;fillColor=#000000;strokeColor=#000000;" vertex="1" parent="1">
          <mxGeometry x="779" y="709" width="2" height="2" as="geometry" />
        </mxCell>
        <mxCell id="HEWKtJRLXLEy209Adw1A-173" value="" style="ellipse;fillColor=#000000;strokeColor=#000000;" vertex="1" parent="1">
          <mxGeometry x="779" y="689" width="2" height="2" as="geometry" />
        </mxCell>
        <mxCell id="HEWKtJRLXLEy209Adw1A-174" value="P&lt;sub&gt;2&lt;/sub&gt;" style="text;html=1;align=center;verticalAlign=middle;resizable=0;points=[];autosize=1;strokeColor=none;fillColor=none;fontStyle=2;fontFamily=Times New Roman;" vertex="1" parent="1">
          <mxGeometry x="869" y="749" width="40" height="30" as="geometry" />
        </mxCell>
        <mxCell id="HEWKtJRLXLEy209Adw1A-175" value="&lt;div style=&quot;line-height: 140%;&quot;&gt;&lt;font style=&quot;font-size: 12px;&quot;&gt;&lt;i&gt;&lt;font style=&quot;font-size: 12px;&quot; face=&quot;Times New Roman&quot;&gt;X&lt;sub&gt;1&lt;/sub&gt;&lt;/font&gt;&lt;/i&gt;&lt;/font&gt;&lt;/div&gt;&lt;div style=&quot;line-height: 140%;&quot;&gt;&lt;font face=&quot;Times New Roman&quot; style=&quot;font-size: 12px;&quot;&gt;&lt;i&gt;&lt;font style=&quot;font-size: 12px;&quot;&gt;X&lt;sub&gt;2&lt;/sub&gt;&lt;/font&gt;&lt;/i&gt;&lt;/font&gt;&lt;/div&gt;&lt;div style=&quot;line-height: 140%;&quot;&gt;&lt;font face=&quot;Times New Roman&quot; style=&quot;font-size: 12px;&quot;&gt;&lt;i&gt;&lt;font style=&quot;font-size: 12px;&quot;&gt;X&lt;sub&gt;3&lt;/sub&gt;&lt;/font&gt;&lt;/i&gt;&lt;/font&gt;&lt;/div&gt;&lt;div style=&quot;line-height: 140%;&quot;&gt;&lt;font face=&quot;Times New Roman&quot; style=&quot;font-size: 12px;&quot;&gt;&lt;i&gt;X&lt;sub&gt;4&lt;/sub&gt;&lt;/i&gt;&lt;/font&gt;&lt;sub&gt;&lt;font face=&quot;zFF1hi2sgLc2HM2d1cql&quot; style=&quot;font-size: 12px;&quot;&gt;&lt;br&gt;&lt;/font&gt;&lt;/sub&gt;&lt;/div&gt;" style="text;html=1;align=center;verticalAlign=middle;whiteSpace=wrap;rounded=0;strokeColor=none;" vertex="1" parent="1">
          <mxGeometry x="760" y="700" width="60" height="30" as="geometry" />
        </mxCell>
        <mxCell id="HEWKtJRLXLEy209Adw1A-176" value="" style="shape=parallelogram;perimeter=parallelogramPerimeter;whiteSpace=wrap;html=1;fixedSize=1;rotation=90;flipH=1;strokeColor=#000000;" vertex="1" parent="1">
          <mxGeometry x="857" y="691" width="90" height="30" as="geometry" />
        </mxCell>
        <mxCell id="HEWKtJRLXLEy209Adw1A-177" value="" style="endArrow=none;html=1;rounded=0;strokeColor=#000000;exitX=1;exitY=0.5;exitDx=0;exitDy=0;entryX=0.599;entryY=1.004;entryDx=0;entryDy=0;entryPerimeter=0;" edge="1" parent="1" source="HEWKtJRLXLEy209Adw1A-173" target="HEWKtJRLXLEy209Adw1A-176">
          <mxGeometry width="50" height="50" relative="1" as="geometry">
            <mxPoint x="801" y="691" as="sourcePoint" />
            <mxPoint x="870" y="690" as="targetPoint" />
          </mxGeometry>
        </mxCell>
        <mxCell id="HEWKtJRLXLEy209Adw1A-178" value="" style="endArrow=none;html=1;rounded=0;strokeColor=#000000;exitX=0.539;exitY=1.012;exitDx=0;exitDy=0;entryX=0.517;entryY=0.007;entryDx=0;entryDy=0;entryPerimeter=0;exitPerimeter=0;" edge="1" parent="1">
          <mxGeometry width="50" height="50" relative="1" as="geometry">
            <mxPoint x="909.64" y="698.49" as="sourcePoint" />
            <mxPoint x="939.79" y="700.4700000000001" as="targetPoint" />
          </mxGeometry>
        </mxCell>
        <mxCell id="HEWKtJRLXLEy209Adw1A-179" value="" style="endArrow=none;html=1;rounded=0;strokeColor=#000000;entryX=0.522;entryY=1.01;entryDx=0;entryDy=0;entryPerimeter=0;" edge="1" parent="1" target="HEWKtJRLXLEy209Adw1A-176">
          <mxGeometry width="50" height="50" relative="1" as="geometry">
            <mxPoint x="780" y="710" as="sourcePoint" />
            <mxPoint x="940" y="701" as="targetPoint" />
          </mxGeometry>
        </mxCell>
        <mxCell id="HEWKtJRLXLEy209Adw1A-180" value="" style="endArrow=none;html=1;rounded=0;strokeColor=#000000;entryX=0.425;entryY=0;entryDx=0;entryDy=0;entryPerimeter=0;exitX=0.4;exitY=0.995;exitDx=0;exitDy=0;exitPerimeter=0;" edge="1" parent="1">
          <mxGeometry width="50" height="50" relative="1" as="geometry">
            <mxPoint x="902.15" y="703.0000000000001" as="sourcePoint" />
            <mxPoint x="939.9999999999999" y="700.75" as="targetPoint" />
          </mxGeometry>
        </mxCell>
        <mxCell id="HEWKtJRLXLEy209Adw1A-181" value="" style="endArrow=none;html=1;rounded=0;strokeColor=#000000;entryX=0.419;entryY=-0.004;entryDx=0;entryDy=0;entryPerimeter=0;" edge="1" parent="1">
          <mxGeometry width="50" height="50" relative="1" as="geometry">
            <mxPoint x="903" y="708" as="sourcePoint" />
            <mxPoint x="940.1199999999999" y="701.2900000000001" as="targetPoint" />
          </mxGeometry>
        </mxCell>
        <mxCell id="HEWKtJRLXLEy209Adw1A-183" value="" style="ellipse;fillColor=#000000;strokeColor=#000000;gradientColor=default;" vertex="1" parent="1">
          <mxGeometry x="902" y="707" width="2" height="2" as="geometry" />
        </mxCell>
        <mxCell id="HEWKtJRLXLEy209Adw1A-184" value="" style="ellipse;fillColor=#000000;strokeColor=#000000;" vertex="1" parent="1">
          <mxGeometry x="901" y="702" width="2" height="2" as="geometry" />
        </mxCell>
        <mxCell id="HEWKtJRLXLEy209Adw1A-185" value="" style="ellipse;fillColor=#000000;strokeColor=#000000;" vertex="1" parent="1">
          <mxGeometry x="909" y="697" width="2" height="2" as="geometry" />
        </mxCell>
        <mxCell id="HEWKtJRLXLEy209Adw1A-189" value="" style="ellipse;fillColor=#000000;strokeColor=#000000;" vertex="1" parent="1">
          <mxGeometry x="834" y="732" width="2" height="2" as="geometry" />
        </mxCell>
        <mxCell id="HEWKtJRLXLEy209Adw1A-190" value="" style="ellipse;fillColor=#000000;strokeColor=#000000;" vertex="1" parent="1">
          <mxGeometry x="837" y="725" width="2" height="2" as="geometry" />
        </mxCell>
        <mxCell id="HEWKtJRLXLEy209Adw1A-191" value="" style="ellipse;fillColor=#000000;strokeColor=#000000;" vertex="1" parent="1">
          <mxGeometry x="828" y="740" width="2" height="2" as="geometry" />
        </mxCell>
        <mxCell id="HEWKtJRLXLEy209Adw1A-192" value="P&lt;sub&gt;3&lt;/sub&gt;" style="text;html=1;align=center;verticalAlign=middle;resizable=0;points=[];autosize=1;strokeColor=none;fillColor=none;fontStyle=2;fontFamily=Times New Roman;" vertex="1" parent="1">
          <mxGeometry x="930" y="688" width="40" height="30" as="geometry" />
        </mxCell>
        <mxCell id="HEWKtJRLXLEy209Adw1A-193" value="P&lt;sub&gt;1&lt;/sub&gt;" style="text;html=1;align=center;verticalAlign=middle;resizable=0;points=[];autosize=1;strokeColor=none;fillColor=none;fontStyle=2;fontFamily=Times New Roman;" vertex="1" parent="1">
          <mxGeometry x="643" y="758" width="40" height="30" as="geometry" />
        </mxCell>
        <mxCell id="HEWKtJRLXLEy209Adw1A-194" value="" style="endArrow=none;html=1;rounded=0;strokeColor=#FF0000;exitX=0.883;exitY=0.537;exitDx=0;exitDy=0;exitPerimeter=0;" edge="1" parent="1" source="HEWKtJRLXLEy209Adw1A-161">
          <mxGeometry width="50" height="50" relative="1" as="geometry">
            <mxPoint x="887.6562500000002" y="755" as="sourcePoint" />
            <mxPoint x="800" y="680" as="targetPoint" />
          </mxGeometry>
        </mxCell>
        <mxCell id="HEWKtJRLXLEy209Adw1A-195" value="P&lt;sub&gt;1&lt;/sub&gt;" style="text;html=1;align=center;verticalAlign=middle;resizable=0;points=[];autosize=1;strokeColor=none;fillColor=none;fontStyle=2;fontFamily=Times New Roman;" vertex="1" parent="1">
          <mxGeometry x="343" y="778" width="40" height="30" as="geometry" />
        </mxCell>
        <mxCell id="HEWKtJRLXLEy209Adw1A-196" value="" style="endArrow=none;html=1;rounded=0;strokeColor=#FF0000;exitX=0.652;exitY=1.008;exitDx=0;exitDy=0;exitPerimeter=0;" edge="1" parent="1" source="HEWKtJRLXLEy209Adw1A-176">
          <mxGeometry width="50" height="50" relative="1" as="geometry">
            <mxPoint x="920" y="680" as="sourcePoint" />
            <mxPoint x="800" y="680" as="targetPoint" />
          </mxGeometry>
        </mxCell>
        <mxCell id="HEWKtJRLXLEy209Adw1A-197" value="" style="endArrow=none;html=1;rounded=0;strokeColor=#FF0000;exitX=0.543;exitY=0.003;exitDx=0;exitDy=0;exitPerimeter=0;entryX=0.871;entryY=0.577;entryDx=0;entryDy=0;entryPerimeter=0;" edge="1" parent="1">
          <mxGeometry width="50" height="50" relative="1" as="geometry">
            <mxPoint x="887.8199999999999" y="754.13" as="sourcePoint" />
            <mxPoint x="853.3800000000001" y="724.6100000000001" as="targetPoint" />
          </mxGeometry>
        </mxCell>
        <mxCell id="HEWKtJRLXLEy209Adw1A-198" value="" style="endArrow=none;html=1;rounded=0;strokeColor=#FF0000;exitX=0.507;exitY=0.005;exitDx=0;exitDy=0;exitPerimeter=0;entryX=0.572;entryY=0.997;entryDx=0;entryDy=0;entryPerimeter=0;" edge="1" parent="1">
          <mxGeometry width="50" height="50" relative="1" as="geometry">
            <mxPoint x="939.8499999999999" y="700.37" as="sourcePoint" />
            <mxPoint x="892.0899999999999" y="693.5200000000001" as="targetPoint" />
          </mxGeometry>
        </mxCell>
        <mxCell id="HEWKtJRLXLEy209Adw1A-202" value="" style="endArrow=none;html=1;rounded=0;strokeColor=#FF0000;" edge="1" parent="1">
          <mxGeometry width="50" height="50" relative="1" as="geometry">
            <mxPoint x="853" y="724" as="sourcePoint" />
            <mxPoint x="891.5" y="694" as="targetPoint" />
          </mxGeometry>
        </mxCell>
        <mxCell id="HEWKtJRLXLEy209Adw1A-169" value="" style="ellipse;fillColor=#000000;strokeColor=#000000;" vertex="1" parent="1">
          <mxGeometry x="887" y="754" width="2" height="2" as="geometry" />
        </mxCell>
        <mxCell id="HEWKtJRLXLEy209Adw1A-182" value="" style="ellipse;fillColor=#000000;strokeColor=#000000;" vertex="1" parent="1">
          <mxGeometry x="939" y="700" width="2" height="2" as="geometry" />
        </mxCell>
        <mxCell id="HEWKtJRLXLEy209Adw1A-203" value="" style="ellipse;fillColor=#FF0000;strokeColor=#FF0000;" vertex="1" parent="1">
          <mxGeometry x="891" y="693" width="2" height="2" as="geometry" />
        </mxCell>
        <mxCell id="HEWKtJRLXLEy209Adw1A-204" value="" style="ellipse;fillColor=#FF0000;strokeColor=#FF0000;" vertex="1" parent="1">
          <mxGeometry x="852" y="723" width="2" height="2" as="geometry" />
        </mxCell>
        <mxCell id="HEWKtJRLXLEy209Adw1A-205" value="" style="ellipse;fillColor=#FF0000;strokeColor=#FF0000;" vertex="1" parent="1">
          <mxGeometry x="800" y="679" width="2" height="2" as="geometry" />
        </mxCell>
        <mxCell id="HEWKtJRLXLEy209Adw1A-206" value="&lt;font color=&quot;#ff0000&quot; face=&quot;Times New Roman&quot;&gt;&lt;i&gt;X&lt;sub&gt;5&lt;/sub&gt;&lt;/i&gt;&lt;/font&gt;" style="text;html=1;align=center;verticalAlign=middle;resizable=0;points=[];autosize=1;strokeColor=none;fillColor=none;" vertex="1" parent="1">
          <mxGeometry x="782" y="658" width="40" height="30" as="geometry" />
        </mxCell>
      </root>
    </mxGraphModel>
  </diagram>
</mxfile>
